<svg xmlns="http://www.w3.org/2000/svg" xmlns:xlink="http://www.w3.org/1999/xlink" width="216" height="216" viewBox="0 0 216 216"><defs><linearGradient id="a" x1="0.5" x2="0.5" y2="1" gradientUnits="objectBoundingBox"><stop offset="0" stop-color="#ff2a6b"/><stop offset="1" stop-color="#ff5e3a"/></linearGradient></defs><g transform="translate(-0.001 -4.737)"><path d="M14.182,83.58a53.425,53.425,0,0,0,4.7,11.283L13.209,102.1a5.982,5.982,0,0,0,.44,7.866l9.778,9.879a5.807,5.807,0,0,0,7.786.445l7.114-5.688a51.4,51.4,0,0,0,11.609,4.963L51,128.807a5.883,5.883,0,0,0,5.816,5.244H70.651a5.884,5.884,0,0,0,5.816-5.244l1.02-8.919a51.975,51.975,0,0,0,12.443-5.08l6.882,5.5a5.833,5.833,0,0,0,7.786-.445l9.778-9.879a5.956,5.956,0,0,0,.44-7.866l-5.353-6.859a51.881,51.881,0,0,0,5.121-12.36l8.249-.96a5.9,5.9,0,0,0,5.19-5.876V62.09a5.9,5.9,0,0,0-5.19-5.876l-8.133-.96a52.228,52.228,0,0,0-4.912-12.22l5.005-6.391a5.982,5.982,0,0,0-.44-7.866L104.6,18.923a5.807,5.807,0,0,0-7.786-.445l-6.14,4.916A51.285,51.285,0,0,0,77.95,18.01l-.927-8.029a5.883,5.883,0,0,0-5.816-5.244H57.374a5.883,5.883,0,0,0-5.816,5.244l-.927,8.029a51.075,51.075,0,0,0-13.046,5.571l-6.372-5.1a5.833,5.833,0,0,0-7.786.445L13.649,28.8a5.956,5.956,0,0,0-.44,7.866l5.329,6.812a51.234,51.234,0,0,0-4.82,12.337L5.191,56.8A5.9,5.9,0,0,0,0,62.675V76.651a5.9,5.9,0,0,0,5.19,5.876ZM64.3,45.774a23.106,23.106,0,1,1-22.87,23.105A23.022,23.022,0,0,1,64.3,45.774Z" fill="url(#a)"/><path d="M568.239,303.79l-7.3-6.227a5.73,5.73,0,0,0-7.693.211l-4.032,3.816a41.377,41.377,0,0,0-10.752-3.511l-1.135-5.618a5.837,5.837,0,0,0-6.164-4.682l-9.523.819a5.836,5.836,0,0,0-5.306,5.642l-.185,5.712a41.645,41.645,0,0,0-10.265,5.454l-4.819-3.23a5.748,5.748,0,0,0-7.623,1.1l-6.164,7.421a5.878,5.878,0,0,0,.208,7.772l4.217,4.541a43.966,43.966,0,0,0-3.1,10.394l-6.025,1.241a5.878,5.878,0,0,0-4.634,6.227l.811,9.621a5.828,5.828,0,0,0,5.584,5.361l6.511.21a43.145,43.145,0,0,0,4.611,8.9l-3.638,5.548a5.891,5.891,0,0,0,1.089,7.7l7.3,6.227a5.73,5.73,0,0,0,7.693-.211l4.773-4.518a41.538,41.538,0,0,0,9.8,3.23l1.321,6.6a5.837,5.837,0,0,0,6.164,4.682l9.524-.819a5.836,5.836,0,0,0,5.306-5.642L545,381.3a42.667,42.667,0,0,0,9.8-5.009l5.26,3.511a5.749,5.749,0,0,0,7.623-1.1l6.164-7.374a5.878,5.878,0,0,0-.208-7.772l-4.241-4.541a42.468,42.468,0,0,0,3.337-10.441l5.793-1.194a5.878,5.878,0,0,0,4.634-6.227l-.811-9.621a5.829,5.829,0,0,0-5.584-5.361l-5.816-.187a42.68,42.68,0,0,0-4.843-9.645l3.174-4.822A5.861,5.861,0,0,0,568.239,303.79ZM532.346,359.41a18.911,18.911,0,1,1,17.077-20.436A18.78,18.78,0,0,1,532.346,359.41Z" transform="translate(-367.178 -216.768)" fill="url(#a)"/><path d="M187.558,592.842a5.825,5.825,0,0,0-5.19,5.759l-.07,5.923a5.815,5.815,0,0,0,5.051,5.876l4.31.562a33.973,33.973,0,0,0,3.059,7.561l-2.781,3.465a5.881,5.881,0,0,0,.348,7.772l4.1,4.237a5.742,5.742,0,0,0,7.693.538l3.452-2.692a33.674,33.674,0,0,0,7.693,3.394l.463,4.495a5.812,5.812,0,0,0,5.7,5.244l5.863.07a5.8,5.8,0,0,0,5.816-5.1l.533-4.26a34.6,34.6,0,0,0,8.342-3.277l3.244,2.645a5.734,5.734,0,0,0,7.693-.351l4.194-4.143a5.889,5.889,0,0,0,.533-7.772l-2.48-3.254a34.134,34.134,0,0,0,3.522-8.193l3.846-.4a5.826,5.826,0,0,0,5.19-5.759l.069-5.923a5.815,5.815,0,0,0-5.051-5.876l-3.754-.492a35.484,35.484,0,0,0-3.174-8.193l2.34-2.9a5.881,5.881,0,0,0-.348-7.772l-4.1-4.237a5.742,5.742,0,0,0-7.693-.538l-2.8,2.177a33.9,33.9,0,0,0-8.434-3.7l-.371-3.675a5.811,5.811,0,0,0-5.7-5.244l-5.862-.07a5.8,5.8,0,0,0-5.816,5.1l-.463,3.652a34.8,34.8,0,0,0-8.735,3.6l-2.9-2.388a5.734,5.734,0,0,0-7.693.351l-4.217,4.167a5.888,5.888,0,0,0-.533,7.772l2.479,3.231a34.463,34.463,0,0,0-3.314,8.193Zm37.839-6.7a15.405,15.405,0,1,1-15.432,15.216A15.344,15.344,0,0,1,225.4,586.147Z" transform="translate(-140.055 -424.309)" fill="url(#a)"/></g></svg>