<svg xmlns="http://www.w3.org/2000/svg" xmlns:xlink="http://www.w3.org/1999/xlink" width="79.134" height="72" viewBox="0 0 79.134 72"><defs><linearGradient id="a" x1="0.5" x2="0.5" y2="1" gradientUnits="objectBoundingBox"><stop offset="0" stop-color="#ff2a6b"/><stop offset="1" stop-color="#ff5e3a"/></linearGradient></defs><g transform="translate(0 0)"><g transform="translate(0 0)"><path d="M32.756,42.892A18.469,18.469,0,0,0,49.027,33H16.486a18.469,18.469,0,0,0,16.27,9.892Z" transform="translate(6.81 13.633)" fill="url(#a)"/><path d="M34.066,17.826A2.829,2.829,0,0,0,31.239,15H27v5.652h4.239A2.829,2.829,0,0,0,34.066,17.826Z" transform="translate(11.154 6.197)" fill="url(#a)"/><path d="M19.391,17.163l-1.337,4.009h2.674Z" transform="translate(7.458 7.091)" fill="url(#a)"/><path d="M13.508,33.148a18.3,18.3,0,0,1-4.215-.507l-4.363,1.8,3.5,8.486,5.965-2.463a1.414,1.414,0,0,1,1.7.495,26.018,26.018,0,0,0,6.395,6.394,1.412,1.412,0,0,1,.5,1.7L20.518,55,29,58.515l2.464-5.955a1.413,1.413,0,0,1,1.552-.851,25.533,25.533,0,0,0,9.026-.012,1.417,1.417,0,0,1,1.556.849l2.477,5.966L54.543,55l-2.463-5.966a1.413,1.413,0,0,1,.5-1.7,25.733,25.733,0,0,0,6.39-6.378,1.411,1.411,0,0,1,1.7-.493l5.963,2.467,3.519-8.485-3.173-1.321c-.159.006-.315.024-.476.024H56.931a21.156,21.156,0,0,1-38.8,0Z" transform="translate(2.037 13.485)" fill="url(#a)"/><path d="M15.544,43.806H68.535a10.6,10.6,0,1,0,0-21.2h-.141a1.413,1.413,0,0,1-1.332-.943,13.408,13.408,0,0,0-12.739-8.949c-.138,0-.275,0-.413.01a1.426,1.426,0,0,1-1.419-.906,18.367,18.367,0,0,0-34.338.039,1.41,1.41,0,0,1-1.463.907,11.378,11.378,0,0,0-1.144-.05,15.544,15.544,0,1,0,0,31.088ZM49.459,18.37h8.479a1.413,1.413,0,1,1,0,2.826H55.111V35.328h2.826a1.413,1.413,0,1,1,0,2.826H49.459a1.413,1.413,0,0,1,0-2.826h2.826V21.2H49.459a1.413,1.413,0,0,1,0-2.826Zm-12.718,0h5.652a5.652,5.652,0,1,1,0,11.3H38.154v7.066a1.413,1.413,0,0,1-2.826,0V19.784A1.413,1.413,0,0,1,36.741,18.37Zm-14.059-6.1c3.113-9.337,10.9-9.445,11.232-9.445a1.413,1.413,0,1,1,.007,2.826c-.274,0-6.114.18-8.558,7.513a1.413,1.413,0,0,1-2.681-.894ZM19.856,36.294l5.652-16.957c.011-.032.036-.054.049-.085a1.525,1.525,0,0,1,.761-.76c.031-.013.052-.037.084-.048a1.325,1.325,0,0,1,.159-.02,1.181,1.181,0,0,1,.576,0,1.318,1.318,0,0,1,.159.02c.032.011.053.035.084.048a1.53,1.53,0,0,1,.761.761c.013.031.038.053.049.085l5.652,16.957a1.413,1.413,0,0,1-2.681.894l-2.033-6.1H24.57l-2.033,6.1a1.413,1.413,0,1,1-2.681-.894ZM10.121,16.768a1.413,1.413,0,1,1,1.207,2.556,9.934,9.934,0,0,0-5.677,8.939,9.712,9.712,0,0,0,2.186,6.176,1.413,1.413,0,1,1-2.2,1.779,12.681,12.681,0,0,1,4.479-19.45Z" transform="translate(0 0)" fill="url(#a)"/></g></g></svg>