<svg xmlns="http://www.w3.org/2000/svg" xmlns:xlink="http://www.w3.org/1999/xlink" width="72" height="72" viewBox="0 0 72 72"><defs><linearGradient id="a" x1="0.5" x2="0.5" y2="1" gradientUnits="objectBoundingBox"><stop offset="0" stop-color="#ff2a6b"/><stop offset="1" stop-color="#ff5e3a"/></linearGradient></defs><g transform="translate(-670 -1666)"><g transform="translate(670 1666)"><g transform="translate(0 0)"><g transform="translate(0)"><g transform="translate(35.703 0)"><g transform="translate(0)"><path d="M278.879,22.058l-2.607-1.071a14.849,14.849,0,0,0,0-5.869l2.607-1.071a1.234,1.234,0,0,0,.678-1.614l-1.282-3.1a1.243,1.243,0,0,0-1.62-.675l-2.608,1.071a14.892,14.892,0,0,0-4.154-4.152l1.075-2.6a1.23,1.23,0,0,0-.678-1.6L267.167.1a1.243,1.243,0,0,0-1.62.675l-1.075,2.6a15.03,15.03,0,0,0-5.893,0L257.5.77A1.243,1.243,0,0,0,255.883.1l-3.138,1.262a1.234,1.234,0,0,0-.678,1.614l1.075,2.6A14.892,14.892,0,0,0,248.974,9.7l-2.608-1.071a1.243,1.243,0,0,0-1.62.675l-1.3,3.11a1.234,1.234,0,0,0,.678,1.614l2.607,1.071a14.849,14.849,0,0,0,0,5.869l-2.607,1.071a1.234,1.234,0,0,0-.678,1.614l1.3,3.11a1.243,1.243,0,0,0,1.62.675l2.608-1.071a14.891,14.891,0,0,0,4.154,4.152l-1.075,2.6a1.234,1.234,0,0,0,.678,1.614l3.123,1.291a1.231,1.231,0,0,0,1.62-.675l1.075-2.6a15.03,15.03,0,0,0,5.893,0l1.075,2.6a1.243,1.243,0,0,0,1.62.675l3.123-1.291a1.234,1.234,0,0,0,.678-1.614l-1.075-2.6a14.892,14.892,0,0,0,4.169-4.137l2.607,1.071a1.231,1.231,0,0,0,1.62-.675l1.3-3.11A1.234,1.234,0,0,0,278.879,22.058ZM267.786,15.6,262.5,20.87l2.018,2.01a.359.359,0,0,1-.221.616l-8.6.851a.441.441,0,0,1-.486-.484l.854-8.568a.369.369,0,0,1,.619-.22l2.018,2.01,5.289-5.267a.571.571,0,0,1,.825,0L267.8,14.8A.561.561,0,0,1,267.786,15.6Z" transform="translate(-243.354 0)" fill="url(#a)"/></g></g><g transform="translate(0.122 43.779)"><g transform="translate(0 0)"><path d="M29.384,298.4l-12.728,2.347a.523.523,0,0,0-.28.88l2.666,2.656L2.278,321.013a1.493,1.493,0,0,0,0,2.142l2.887,2.876a1.534,1.534,0,0,0,2.151,0L24.1,309.32l2.666,2.656a.522.522,0,0,0,.884-.279L30,299.02A.529.529,0,0,0,29.384,298.4Z" transform="translate(-1.825 -298.397)" fill="url(#a)"/></g></g><g transform="translate(0 26.342)"><g transform="translate(0 0)"><path d="M45.3,198.81H41.88a17.927,17.927,0,0,0-2.74-6.588l2.416-2.406a1.5,1.5,0,0,0,0-2.127l-2.917-2.9a1.516,1.516,0,0,0-2.136,0l-2.416,2.406a18.081,18.081,0,0,0-6.614-2.729v-3.4a1.512,1.512,0,0,0-1.517-1.511h-4.11a1.512,1.512,0,0,0-1.517,1.511v3.4a18.081,18.081,0,0,0-6.614,2.729L11.3,184.784a1.516,1.516,0,0,0-2.136,0l-2.917,2.9a1.5,1.5,0,0,0,0,2.127l2.416,2.406a17.927,17.927,0,0,0-2.74,6.588l-3.4.015A1.512,1.512,0,0,0,1,200.336v4.093a1.512,1.512,0,0,0,1.517,1.511H5.935a18.51,18.51,0,0,0,.972,3.272l5.465-5.443a11.509,11.509,0,0,1,3.315-9.566,11.6,11.6,0,1,1,6.835,19.675l-5.465,5.443a18.34,18.34,0,0,0,3.285.968v3.4A1.512,1.512,0,0,0,21.86,225.2h4.11a1.512,1.512,0,0,0,1.517-1.511v-3.4A18.081,18.081,0,0,0,34.1,217.56l2.416,2.406a1.516,1.516,0,0,0,2.136,0l2.917-2.9a1.5,1.5,0,0,0,0-2.127l-2.431-2.421a17.927,17.927,0,0,0,2.74-6.588H45.3a1.512,1.512,0,0,0,1.517-1.511v-4.093A1.512,1.512,0,0,0,45.3,198.81Z" transform="translate(-1 -179.546)" fill="url(#a)"/></g></g></g></g></g></g></svg>