<svg xmlns="http://www.w3.org/2000/svg" xmlns:xlink="http://www.w3.org/1999/xlink" width="72" height="72" viewBox="0 0 72 72"><defs><linearGradient id="a" x1="0.5" x2="0.5" y2="1" gradientUnits="objectBoundingBox"><stop offset="0" stop-color="#ff2a6b"/><stop offset="1" stop-color="#ff5e3a"/></linearGradient></defs><g transform="translate(-352 -1636)"><g transform="translate(352 1636)"><path d="M126.281,128.743a4.669,4.669,0,0,0-1.765-1.129q-.424-.191-.763-.382c-1.355-.72-2.725-1.454-4.066-2.216a13.463,13.463,0,0,0-4.178-1.68c-.212-.042-.438-.1-.663-.156.155,2.584-.085,6.508-2.329,9.318h12.508a1.292,1.292,0,0,0,1.313-1.271v-1.172c0-.155.014-.31.014-.48a1.856,1.856,0,0,0-.071-.833Zm-13.935-6.537c-.593-.282-1.143-.593-1.637-.861v1.525a1.2,1.2,0,0,1-2.4,0v-3.332c-1.257,1.723-2.457,3.332-5.351,3.332H99.2c-2.894,0-4.094-1.609-5.351-3.332v3.332a1.2,1.2,0,0,1-2.4,0v-1.525c-.494.282-1.044.579-1.637.861-.3,2.5-.48,8.146,3.487,10.292h15.572c3.953-2.146,3.769-7.793,3.473-10.292Zm-25.059.974c-.226.057-.452.113-.663.156a13.123,13.123,0,0,0-4.178,1.68c-1.341.763-2.7,1.5-4.066,2.216q-.339.191-.763.382a4.669,4.669,0,0,0-1.765,1.129,1.856,1.856,0,0,0-.071.833c0,.169.014.325.014.48v1.172a1.311,1.311,0,0,0,1.313,1.271H89.617c-2.244-2.809-2.484-6.734-2.329-9.318Zm4.546-9.431a8.368,8.368,0,0,0,.621.565,19.549,19.549,0,0,1,3.275,3.713c1.242,1.722,1.821,2.428,3.459,2.428h3.756c1.637,0,2.216-.692,3.459-2.428a19.981,19.981,0,0,1,3.275-3.713c.226-.2.438-.381.621-.565l1.257-2.936H90.592Zm21.247-19.383c0-.325-.014-.622-.029-.918l-.042-.65c-.41-7.991-10.956-8.5-11.054-8.5h-1.835c-.381.014-10.6.537-11.012,8.5l-.042.663c-.014.31-.028.593-.028.861-.042,1.525-.042,2.852.028,4.15a26.849,26.849,0,0,0,.579,4.391,14.307,14.307,0,0,1,.395,3.19l-.028.776v.141l-.042.974a2.47,2.47,0,0,0,0,.452h22.137a2.377,2.377,0,0,0,0-.452l-.042-.974v-.141l-.028-.776a14.307,14.307,0,0,1,.4-3.19,27.32,27.32,0,0,0,.579-4.391,35.765,35.765,0,0,0,.071-4.108ZM87.3,103.346a29.926,29.926,0,0,1-.593-4.193,1.663,1.663,0,0,0-1.116-.367,8.269,8.269,0,0,0-.042,3.431,5.181,5.181,0,0,0,2,2.64c-.057-.508-.156-.974-.254-1.51Zm29.252-4.574a1.662,1.662,0,0,0-1.115.367,30.019,30.019,0,0,1-.593,4.193c-.113.536-.212,1.016-.269,1.51a5.225,5.225,0,0,0,2-2.71,8.42,8.42,0,0,0-.028-3.36Zm0,0" transform="translate(-65.067 -72.4)" fill="url(#a)"/><path d="M1.059,10.56A1.067,1.067,0,0,1,0,9.5V5.887A5.892,5.892,0,0,1,5.887,0H9.5A1.067,1.067,0,0,1,10.56,1.059,1.067,1.067,0,0,1,9.5,2.118H5.887A3.778,3.778,0,0,0,2.118,5.887V9.5A1.058,1.058,0,0,1,1.059,10.56Zm0,0" transform="translate(0 0)" fill="url(#a)"/><path d="M9.5,445.759H5.887A5.892,5.892,0,0,1,0,439.872v-3.614A1.067,1.067,0,0,1,1.059,435.2a1.067,1.067,0,0,1,1.059,1.059v3.614a3.778,3.778,0,0,0,3.769,3.769H9.5a1.059,1.059,0,1,1,0,2.118Zm0,0" transform="translate(0 -373.759)" fill="url(#a)"/><path d="M439.873,445.759h-3.614a1.059,1.059,0,1,1,0-2.118h3.614a3.778,3.778,0,0,0,3.769-3.769v-3.614a1.059,1.059,0,1,1,2.118,0v3.614A5.892,5.892,0,0,1,439.873,445.759Zm0,0" transform="translate(-373.76 -373.759)" fill="url(#a)"/><path d="M444.7,10.56A1.067,1.067,0,0,1,443.642,9.5V5.887a3.778,3.778,0,0,0-3.769-3.769h-3.614A1.067,1.067,0,0,1,435.2,1.059,1.067,1.067,0,0,1,436.258,0h3.614a5.877,5.877,0,0,1,5.873,5.873V9.487A1.049,1.049,0,0,1,444.7,10.56Zm0,0" transform="translate(-373.759 0)" fill="url(#a)"/><path d="M35.258,39.931A1.067,1.067,0,0,1,34.2,38.872V36.458A2.265,2.265,0,0,1,36.458,34.2h2.414a1.059,1.059,0,1,1,0,2.118H36.458a.142.142,0,0,0-.141.141v2.414A1.067,1.067,0,0,1,35.258,39.931Zm0,0" transform="translate(-29.371 -29.371)" fill="url(#a)"/><path d="M38.872,440.931H36.458a2.265,2.265,0,0,1-2.259-2.259v-2.414a1.059,1.059,0,1,1,2.118,0v2.414a.142.142,0,0,0,.141.141h2.414a1.059,1.059,0,1,1,0,2.118Zm0,0" transform="translate(-29.371 -373.76)" fill="url(#a)"/><path d="M438.673,440.931h-2.414a1.059,1.059,0,1,1,0-2.118h2.414a.142.142,0,0,0,.141-.141v-2.414a1.059,1.059,0,1,1,2.118,0v2.414A2.265,2.265,0,0,1,438.673,440.931Zm0,0" transform="translate(-373.76 -373.76)" fill="url(#a)"/><path d="M439.873,39.931a1.067,1.067,0,0,1-1.059-1.059V36.458a.142.142,0,0,0-.141-.141h-2.414a1.059,1.059,0,1,1,0-2.118h2.414a2.265,2.265,0,0,1,2.259,2.259v2.414A1.058,1.058,0,0,1,439.873,39.931Zm0,0" transform="translate(-373.76 -29.371)" fill="url(#a)"/><path d="M46.54,257.261l.113.24H25.8a1.2,1.2,0,0,1,0-2.4H46.046a6.081,6.081,0,0,0,.494,2.16Zm0,0" transform="translate(-21.129 -219.087)" fill="url(#a)"/><path d="M351.251,256.113a1.2,1.2,0,0,1-1.2,1.2H329.2l.113-.24a5.786,5.786,0,0,0,.48-2.174h20.245a1.223,1.223,0,0,1,1.214,1.214Zm0,0" transform="translate(-282.724 -218.913)" fill="url(#a)"/></g></g></svg>