<svg xmlns="http://www.w3.org/2000/svg" xmlns:xlink="http://www.w3.org/1999/xlink" width="72" height="72" viewBox="0 0 72 72"><defs><linearGradient id="a" x1="0.5" x2="0.5" y2="1" gradientUnits="objectBoundingBox"><stop offset="0" stop-color="#ff2a6b"/><stop offset="1" stop-color="#ff5e3a"/></linearGradient></defs><g transform="translate(0.001 0)"><path d="M8.647,39.32A28.486,28.486,0,0,1,8.437,36,27.447,27.447,0,0,1,54.492,15.708l-2.433,2.475a2.157,2.157,0,0,0-.548,2.109,2.207,2.207,0,0,0,1.6,1.434c.425.085,14.374,4.58,13.486,4.4a2.133,2.133,0,0,0,2.49-2.489c-.086-.425-3.174-15.921-3-15.033A2.09,2.09,0,0,0,62.55,7.551L60.483,9.576A36.024,36.024,0,0,0,0,36v.084c0,1.189.054,2.108.118,2.811a2.109,2.109,0,0,0,1.688,1.879l4.334.866a2.111,2.111,0,0,0,2.509-2.32Zm0,0" fill="url(#a)"/><path d="M87.777,216.35l-4.346-.885a2.111,2.111,0,0,0-2.516,2.323,28.714,28.714,0,0,1,.218,3.34,27.414,27.414,0,0,1-46.055,20.25l2.433-2.433a2.157,2.157,0,0,0,.548-2.109,2.206,2.206,0,0,0-1.6-1.434c-.425-.086-14.374-4.58-13.486-4.4a2.067,2.067,0,0,0-1.9.591,2.1,2.1,0,0,0-.591,1.9c.086.425,3.175,15.78,3,14.892a2.113,2.113,0,0,0,1.476,1.6,2.026,2.026,0,0,0,2.067-.548l2.025-2.025A35.945,35.945,0,0,0,89.57,221.127V221c0-.935-.034-1.853-.112-2.765a2.108,2.108,0,0,0-1.681-1.885Zm0,0" transform="translate(-17.57 -185.128)" fill="url(#a)"/></g></svg>