<svg xmlns="http://www.w3.org/2000/svg" xmlns:xlink="http://www.w3.org/1999/xlink" width="216" height="216" viewBox="0 0 216 216"><defs><linearGradient id="a" x1="0.5" x2="0.5" y2="1" gradientUnits="objectBoundingBox"><stop offset="0" stop-color="#ff2a6b"/><stop offset="1" stop-color="#ff5e3a"/></linearGradient></defs><path d="M86.234,213.805a107.367,107.367,0,0,1-38.618-16.25,108.328,108.328,0,0,1-39.13-47.517,107.472,107.472,0,0,1-6.292-20.273,109.032,109.032,0,0,1,0-43.531,107.367,107.367,0,0,1,16.25-38.618A108.328,108.328,0,0,1,65.961,8.487,107.472,107.472,0,0,1,86.234,2.195a109.032,109.032,0,0,1,43.531,0,107.367,107.367,0,0,1,38.618,16.25,108.328,108.328,0,0,1,39.13,47.517,107.473,107.473,0,0,1,6.292,20.273,109.033,109.033,0,0,1,0,43.531,107.367,107.367,0,0,1-16.25,38.618,108.328,108.328,0,0,1-47.517,39.13,107.473,107.473,0,0,1-20.273,6.292,109.033,109.033,0,0,1-43.531,0Zm-3.3-165.147A64.611,64.611,0,1,0,108,43.6,64.446,64.446,0,0,0,82.931,48.658Zm3.857,109.555A54.679,54.679,0,1,1,108,162.5,54.545,54.545,0,0,1,86.788,158.213ZM76.775,138.488l36.433-19.618L96.392,102.054Zm25.28-42.1,16.816,16.816,19.616-36.431Z" fill="url(#a)"/></svg>