<svg xmlns="http://www.w3.org/2000/svg" xmlns:xlink="http://www.w3.org/1999/xlink" width="71.998" height="72" viewBox="0 0 71.998 72"><defs><linearGradient id="a" x1="0.5" x2="0.5" y2="1" gradientUnits="objectBoundingBox"><stop offset="0" stop-color="#ff2a6b"/><stop offset="1" stop-color="#ff5e3a"/></linearGradient></defs><g transform="translate(0 0)"><path d="M73.464,355.343v-6.924h3.122V344.2H69.245v11.175a6.387,6.387,0,1,0,4.219-.032Zm0,0" transform="translate(-55.855 -295.796)" fill="url(#a)"/><path d="M12.438,219.016H20.73V214.8H12.438a6.4,6.4,0,1,0,0,4.219Zm0,0" transform="translate(0 -180.905)" fill="url(#a)"/><path d="M69.239,12.425V23.6H81.147a11.082,11.082,0,0,0-.41,2.984v4.051h4.218V26.583a6.894,6.894,0,0,1,13.787,0v4.051h4.219V26.583a11.06,11.06,0,0,0-.411-2.984h11.908V12.426a6.4,6.4,0,1,0-4.219.027V19.38h-9.923V19.4a11.117,11.117,0,0,0-6.359-3.725V12.44a6.4,6.4,0,1,0-4.218,0v3.234A11.112,11.112,0,0,0,83.381,19.4V19.38H73.458V12.455a6.4,6.4,0,0,0,1.595-11.3,6.4,6.4,0,1,0-5.813,11.27Zm0,0" transform="translate(-55.849 0)" fill="url(#a)"/><path d="M177.414,265.3h22.1V247.84h-22.1Zm8.941-10.7h4.219v6.053h-4.219Zm0,0" transform="translate(-152.465 -212.987)" fill="url(#a)"/><path d="M378.906,210.508a6.408,6.408,0,0,0-6.039,4.289h-8.292v4.219h8.292a6.4,6.4,0,1,0,6.039-8.508Zm0,0" transform="translate(-313.306 -180.905)" fill="url(#a)"/><path d="M364.539,355.372V344.2H357.2v4.219h3.122v6.926a6.4,6.4,0,1,0,4.219.027Zm0,0" transform="translate(-305.93 -295.796)" fill="url(#a)"/><path d="M219,405.034V402h-4.219v3.03a6.4,6.4,0,1,0,4.219,0Zm0,0" transform="translate(-180.895 -345.472)" fill="url(#a)"/><path d="M28.813,20.074" transform="translate(-1.153 -0.803)" fill="none" stroke="#707070" stroke-width="1"/></g></svg>