<svg xmlns="http://www.w3.org/2000/svg" xmlns:xlink="http://www.w3.org/1999/xlink" width="216" height="216" viewBox="0 0 216 216"><defs><linearGradient id="a" x1="0.5" x2="0.5" y2="1" gradientUnits="objectBoundingBox"><stop offset="0" stop-color="#ff2a6b"/><stop offset="1" stop-color="#ff5e3a"/></linearGradient></defs><g transform="translate(-0.379 0.001)"><path d="M117.245,2.193a8.607,8.607,0,0,0-11.482,0,7.091,7.091,0,0,0,0,10.6,8.605,8.605,0,0,0,11.482,0,7.185,7.185,0,0,0,2.389-5.3,7.191,7.191,0,0,0-2.389-5.3Zm0,0" transform="translate(-51.242)" fill="url(#a)"/><path d="M15.925,73.469A7.977,7.977,0,0,0,7.971,79.5a7.386,7.386,0,0,0,4.859,8.377,8.5,8.5,0,0,0,9.849-2.763,7.061,7.061,0,0,0-1.013-9.454A8.45,8.45,0,0,0,15.925,73.469Zm0,0" transform="translate(-3.699 -39.398)" fill="url(#a)"/><path d="M121.655,446.248a7.089,7.089,0,0,0,0-10.594,8.607,8.607,0,0,0-11.482,0,7.089,7.089,0,0,0,0,10.594A8.615,8.615,0,0,0,121.655,446.248Zm0,0" transform="translate(-53.436 -232.441)" fill="url(#a)"/><path d="M166.223,40.99l9.069-8.369,9.071,8.369-9.071,8.369Zm0,0" transform="translate(-82.501 -17.493)" fill="url(#a)"/><path d="M104.809,104.193l11.17-8.842L103.91,92.8Zm0,0" transform="translate(-51.503 -49.762)" fill="url(#a)"/><path d="M248.135,203.54,242.662,192l-7.827.531a3.1,3.1,0,0,1-2.644-1.121,44.868,44.868,0,0,0-11.545-10.145,2.731,2.731,0,0,1-1.341-2.4l.23-7.217-12.75-4.529-4.66,4.947v5.243a2.432,2.432,0,0,1-.012.478c0,.014.016.029.012.043a2.545,2.545,0,0,1-.126.444c-.008.016-.008.033-.016.045a2.619,2.619,0,0,1-.212.406c-.012.018-.022.036-.035.054a2.824,2.824,0,0,1-.287.357l-.022.027-7.644,7.882c18.474.822,33.1,14.708,33.474,31.775S213.615,250.3,195.19,251.805s-34.966-10.413-37.849-27.273l-3.961,4.005v20.626a47.931,47.931,0,0,0,10.231,8.509,2.763,2.763,0,0,1,1.38,2.4l-.212,7.215,12.722,4.531,5.057-5.4a3.159,3.159,0,0,1,2.676-.942,56.128,56.128,0,0,0,16.05-.384A3.183,3.183,0,0,1,204,265.9l5.42,5.217,12.514-5.051-.575-7.223a2.7,2.7,0,0,1,1.213-2.44,44.243,44.243,0,0,0,10.993-10.652,3.093,3.093,0,0,1,2.6-1.237l7.823.212,4.906-11.733-5.856-4.665a2.678,2.678,0,0,1-1.021-2.466,44.25,44.25,0,0,0-.414-14.809,2.653,2.653,0,0,1,.879-2.509Zm0,0" transform="translate(-76.112 -89.616)" fill="url(#a)"/><path d="M191.823,129.764a7.087,7.087,0,0,0-.557-10.021,8.623,8.623,0,0,0-11.482,0,7.089,7.089,0,0,0-.557,10.023Zm0,0" transform="translate(-88.067 -63.038)" fill="url(#a)"/><path d="M75.018,242.364a2.749,2.749,0,0,1,.846-1.855l36.128-37.2c.008-.009.037-.065.047-.074l8.068-8.348H7.98l44.16,45.575a2.767,2.767,0,0,1,.766,1.906v46.37L75.018,273Zm0,0" transform="translate(-3.781 -104.505)" fill="url(#a)"/><path d="M172.584,248.164c-.008.245-.026.491-.026.734,0,14.857,13.05,26.9,29.147,26.9s29.147-12.041,29.147-26.9S217.8,222,201.706,222a31.871,31.871,0,0,0-3.987.254Zm0,0" transform="translate(-85.653 -119.047)" fill="url(#a)"/><path d="M.379,155.883h119.6V168.4H.379Zm0,0" transform="translate(0 -83.592)" fill="url(#a)"/><path d="M303.718,128.02l10.261-9.467a2.634,2.634,0,0,0,.756-2.764,2.933,2.933,0,0,0-2.275-1.929l-30.152-5.782a3.18,3.18,0,0,0-2.746.755,2.639,2.639,0,0,0-.821,2.534l6.266,27.825a2.877,2.877,0,0,0,2.089,2.1,3.193,3.193,0,0,0,3-.7l9.358-8.637a77.745,77.745,0,0,1,18.986,57.357c-1.574,18.925-10.013,36.736-23.154,48.863-8.569,7.907-19.84,14.045-32.594,17.746a98.382,98.382,0,0,1-41.018,2.9,2.991,2.991,0,0,0-3.439,2.326,2.82,2.82,0,0,0,2.519,3.174,103.5,103.5,0,0,0,14.6,1.029,104.854,104.854,0,0,0,29.147-4.118c13.676-3.971,25.8-10.583,35.05-19.121,14.144-13.052,23.217-32.139,24.9-52.372,1.871-22.121-5.428-44.073-20.423-61.419A2.688,2.688,0,0,0,303.718,128.02Zm0,0" transform="translate(-108.355 -57.924)" fill="url(#a)"/></g></svg>