<svg xmlns="http://www.w3.org/2000/svg" xmlns:xlink="http://www.w3.org/1999/xlink" width="88.58" height="62" viewBox="0 0 88.58 62"><defs><linearGradient id="a" x1="0.5" x2="0.5" y2="1" gradientUnits="objectBoundingBox"><stop offset="0" stop-color="#ff2a6b"/><stop offset="1" stop-color="#ff5e3a"/></linearGradient></defs><path d="M7.978-6.016V1.4h5.466V-6.016L21.212-21.04H15.075l-4.316,9.4-4.347-9.4H.21ZM45.507-9.884A11.192,11.192,0,0,0,34.031-21.36,11.263,11.263,0,0,0,22.491-9.884,11.29,11.29,0,0,0,34.031,1.624,11.237,11.237,0,0,0,45.507-9.884Zm-17.422,0c0-4,2.3-6.521,5.946-6.521,3.58,0,5.914,2.525,5.914,6.521,0,3.932-2.334,6.521-5.914,6.521C30.387-3.363,28.085-5.952,28.085-9.884ZM48.448-7.646c0,6.2,4.06,9.27,9.27,9.27,5.179,0,9.526-3.069,9.526-9.27V-21.04H61.778V-7.614c0,2.653-1.375,4.188-3.964,4.188s-3.9-1.534-3.9-4.188V-21.04H48.448ZM82.94-13.752c0,1.758-.959,2.813-3,2.813H76.547V-16.5h3.388C81.981-16.5,82.94-15.414,82.94-13.752ZM71.081-21.04V1.4h5.466V-7.071h1.311L82.525,1.4h6.17L83.516-7.486A6.532,6.532,0,0,0,88.5-13.976c0-3.9-2.749-7.065-8.247-7.065ZM1.968,17.976V40.416H14.6V36.2H7.435V17.976ZM39.305,29.132A11.192,11.192,0,0,0,27.829,17.656a11.263,11.263,0,0,0-11.54,11.476A11.29,11.29,0,0,0,27.829,40.64,11.237,11.237,0,0,0,39.305,29.132Zm-17.422,0c0-4,2.3-6.521,5.946-6.521,3.58,0,5.914,2.525,5.914,6.521,0,3.932-2.334,6.521-5.914,6.521C24.185,35.653,21.884,33.064,21.884,29.132ZM52.827,17.72c-6.713,0-11.412,4.731-11.412,11.444s4.731,11.412,11.444,11.412a10.99,10.99,0,0,0,10.8-7.736V27.757H51.773v4.028h6.937a5.376,5.376,0,0,1-5.434,3.964c-3.932,0-6.3-2.429-6.3-6.585,0-3.9,2.334-6.393,5.85-6.393a4.7,4.7,0,0,1,4.411,2.3h6.042C62.1,20.469,58.2,17.72,52.827,17.72ZM88.79,29.132a11.508,11.508,0,0,0-23.016,0,11.508,11.508,0,1,0,23.016,0Zm-17.422,0c0-4,2.3-6.521,5.946-6.521,3.58,0,5.914,2.525,5.914,6.521,0,3.932-2.334,6.521-5.914,6.521C73.67,35.653,71.368,33.064,71.368,29.132Z" transform="translate(-0.21 21.36)" fill="url(#a)"/></svg>