<svg xmlns="http://www.w3.org/2000/svg" xmlns:xlink="http://www.w3.org/1999/xlink" width="72" height="72" viewBox="0 0 72 72"><defs><linearGradient id="a" x1="0.5" x2="0.5" y2="1" gradientUnits="objectBoundingBox"><stop offset="0" stop-color="#ff2a6b"/><stop offset="1" stop-color="#ff5e3a"/></linearGradient></defs><g transform="translate(26.4 7.2)"><rect width="2.4" height="2.4" fill="url(#a)"/></g><g transform="translate(16.8 7.2)"><rect width="2.4" height="2.4" fill="url(#a)"/></g><g transform="translate(7.2 7.2)"><rect width="2.4" height="2.4" fill="url(#a)"/></g><path d="M66.6,0H5.4A5.407,5.407,0,0,0,0,5.4v9H72v-9A5.407,5.407,0,0,0,66.6,0ZM12,10.8A1.2,1.2,0,0,1,10.8,12H6a1.2,1.2,0,0,1-1.2-1.2V6A1.2,1.2,0,0,1,6,4.8h4.8A1.2,1.2,0,0,1,12,6Zm9.6,0A1.2,1.2,0,0,1,20.4,12H15.6a1.2,1.2,0,0,1-1.2-1.2V6a1.2,1.2,0,0,1,1.2-1.2h4.8A1.2,1.2,0,0,1,21.6,6Zm9.6,0A1.2,1.2,0,0,1,30,12H25.2A1.2,1.2,0,0,1,24,10.8V6a1.2,1.2,0,0,1,1.2-1.2H30A1.2,1.2,0,0,1,31.2,6v4.8Z" fill="url(#a)"/><g transform="translate(24 57.6)"><rect width="7.2" height="7.2" fill="url(#a)"/></g><g transform="translate(27.6 28.8)"><path d="M204.667,204.8a8.4,8.4,0,1,0,8.4,8.4A8.41,8.41,0,0,0,204.667,204.8Zm4.536,5.55-4.8,6c-.013.017-.035.023-.049.038s-.022.042-.04.06a1.118,1.118,0,0,1-.23.152,1.222,1.222,0,0,1-.137.091,1.2,1.2,0,0,1-.481.108,1.223,1.223,0,0,1-.421-.082,1.2,1.2,0,0,1-.121-.067,1.144,1.144,0,0,1-.205-.113c-.018-.014-.026-.037-.044-.053s-.038-.02-.055-.037l-2.4-2.4a1.2,1.2,0,0,1,1.7-1.7l1.452,1.452,3.962-4.954a1.2,1.2,0,0,1,1.873,1.5Z" transform="translate(-196.267 -204.8)" fill="url(#a)"/></g><g transform="translate(55.2 57.6)"><rect width="7.2" height="7.2" fill="url(#a)"/></g><g transform="translate(0 16.8)"><path d="M0,119.467v49.8a5.407,5.407,0,0,0,5.4,5.4H66.6a5.407,5.407,0,0,0,5.4-5.4v-49.8Zm18,49.2a1.2,1.2,0,0,1-1.2,1.2H7.2a1.2,1.2,0,0,1-1.2-1.2v-9.6a1.2,1.2,0,0,1,1.2-1.2h9.6a1.2,1.2,0,0,1,1.2,1.2v9.6Zm15.6,0a1.2,1.2,0,0,1-1.2,1.2H22.8a1.2,1.2,0,0,1-1.2-1.2v-9.6a1.2,1.2,0,0,1,1.2-1.2h9.6a1.2,1.2,0,0,1,1.2,1.2Zm15.6,0a1.2,1.2,0,0,1-1.2,1.2H38.4a1.2,1.2,0,0,1-1.2-1.2v-9.6a1.2,1.2,0,0,1,1.2-1.2H48a1.2,1.2,0,0,1,1.2,1.2Zm15.6,0a1.2,1.2,0,0,1-1.2,1.2H54a1.2,1.2,0,0,1-1.2-1.2v-9.6a1.2,1.2,0,0,1,1.2-1.2h9.6a1.2,1.2,0,0,1,1.2,1.2Zm0-14.4a1.2,1.2,0,0,1-1.2,1.2H7.2a1.2,1.2,0,0,1-1.2-1.2v-28.8a1.2,1.2,0,0,1,1.2-1.2H63.6a1.2,1.2,0,0,1,1.2,1.2Z" transform="translate(0 -119.467)" fill="url(#a)"/></g><g transform="translate(8.4 57.6)"><rect width="7.2" height="7.2" fill="url(#a)"/></g><g transform="translate(39.6 57.6)"><rect width="7.2" height="7.2" fill="url(#a)"/></g><g transform="translate(8.4 24)"><path d="M59.733,170.667v26.4h54v-26.4Zm27.6,24a10.8,10.8,0,1,1,10.8-10.8A10.812,10.812,0,0,1,87.333,194.667Z" transform="translate(-59.733 -170.667)" fill="url(#a)"/></g></svg>