<svg xmlns="http://www.w3.org/2000/svg" xmlns:xlink="http://www.w3.org/1999/xlink" width="98.187" height="72" viewBox="0 0 98.187 72"><defs><linearGradient id="a" x1="0.5" x2="0.5" y2="1" gradientUnits="objectBoundingBox"><stop offset="0" stop-color="#ff2a6b"/><stop offset="1" stop-color="#ff5e3a"/></linearGradient></defs><g transform="translate(0 -64.013)"><g transform="translate(42.545 64.013)"><g transform="translate(0 0)"><path d="M262.8,97.827,233.348,65.1a3.275,3.275,0,0,0-2.435-1.087H211.276a3.27,3.27,0,0,0-2.435,5.459l27.484,30.541-27.484,30.535a3.276,3.276,0,0,0,2.435,5.465h19.636a3.317,3.317,0,0,0,2.435-1.08L262.8,102.206A3.275,3.275,0,0,0,262.8,97.827Z" transform="translate(-208 -64.013)" fill="url(#a)"/></g></g><g transform="translate(0 64.013)"><g transform="translate(0 0)"><path d="M54.8,97.827,25.348,65.1a3.275,3.275,0,0,0-2.435-1.087H3.276A3.27,3.27,0,0,0,.842,69.472l27.484,30.541L.842,130.548a3.276,3.276,0,0,0,2.435,5.465H22.913a3.317,3.317,0,0,0,2.435-1.08L54.8,102.206A3.275,3.275,0,0,0,54.8,97.827Z" transform="translate(0 -64.013)" fill="url(#a)"/></g></g></g></svg>