<svg xmlns="http://www.w3.org/2000/svg" xmlns:xlink="http://www.w3.org/1999/xlink" width="72" height="72" viewBox="0 0 72 72"><defs><linearGradient id="a" x1="0.5" x2="0.5" y2="1" gradientUnits="objectBoundingBox"><stop offset="0" stop-color="#ff2a6b"/><stop offset="1" stop-color="#ff5e3a"/></linearGradient></defs><path d="M67.2,31.2a4.8,4.8,0,0,0-4.63,3.6H55.2V33.517a1.2,1.2,0,0,0-.664-1.074L51.257,30.8l-.926-2.78,1.639-3.278a1.2,1.2,0,0,0-.224-1.385l-.7-.7,4.595-4.595a4.791,4.791,0,0,0,5.82-7.516,4.914,4.914,0,0,0-6.788,0,4.752,4.752,0,0,0-.73,5.819l-4.595,4.594-.7-.7A1.2,1.2,0,0,0,47.319,20l-3.925,1.681-2.82-.938-1.639-3.28a1.2,1.2,0,0,0-1.073-.664H37.2V9.43a4.8,4.8,0,1,0-2.4,0V16.8h-.662a1.2,1.2,0,0,0-1.074.664l-1.639,3.28-2.82.938L24.679,20a1.2,1.2,0,0,0-1.321.254l-.7.7L18.06,16.365a4.753,4.753,0,0,0-.728-5.819,4.914,4.914,0,0,0-6.788,0,4.787,4.787,0,0,0,5.819,7.516l4.595,4.595-.7.7a1.2,1.2,0,0,0-.224,1.385l1.639,3.278-.926,2.78-3.28,1.639a1.2,1.2,0,0,0-.662,1.074V34.8H9.43a4.8,4.8,0,1,0,0,2.4H16.8v1.283a1.2,1.2,0,0,0,.664,1.074l3.28,1.639.926,2.78-1.639,3.278a1.2,1.2,0,0,0,.224,1.385l.7.7-4.6,4.6a4.923,4.923,0,0,0-5.809.719,4.815,4.815,0,1,0,7.517.968l4.595-4.594.7.7A1.2,1.2,0,0,0,24.681,52l3.925-1.681,2.82.938,1.639,3.28a1.2,1.2,0,0,0,1.073.664H34.8v7.37a4.8,4.8,0,1,0,2.4,0V55.2h.662a1.2,1.2,0,0,0,1.074-.664l1.639-3.28,2.82-.938L47.321,52a1.2,1.2,0,0,0,1.321-.254l.7-.7,4.595,4.594a4.79,4.79,0,1,0,7.518-.968,4.925,4.925,0,0,0-5.809-.719l-4.6-4.6.7-.7a1.2,1.2,0,0,0,.224-1.385l-1.639-3.278.926-2.78,3.28-1.639a1.2,1.2,0,0,0,.661-1.074V37.2h7.37a4.792,4.792,0,1,0,4.63-6ZM31.2,36A4.8,4.8,0,1,1,36,40.8,4.8,4.8,0,0,1,31.2,36ZM36,45.6a1.2,1.2,0,0,1,0-2.4A7.2,7.2,0,1,0,28.8,36a1.2,1.2,0,0,1-2.4,0A9.6,9.6,0,1,1,36,45.6Z" fill="url(#a)"/><g transform="translate(33.6 33.6)"><circle cx="2.4" cy="2.4" r="2.4" fill="url(#a)"/></g></svg>