<svg xmlns="http://www.w3.org/2000/svg" xmlns:xlink="http://www.w3.org/1999/xlink" width="72" height="72" viewBox="0 0 72 72"><defs><linearGradient id="a" x1="0.5" x2="0.5" y2="1" gradientUnits="objectBoundingBox"><stop offset="0" stop-color="#ff2a6b"/><stop offset="1" stop-color="#ff5e3a"/></linearGradient></defs><path d="M65.215,97H56.784L54.4,89.838l-.681-.174a29.4,29.4,0,0,1-7.827-3.246l-.6-.36L38.66,89.369l-.688-.485-5.41-5.41,3.381-6.758-.362-.6a29.386,29.386,0,0,1-3.246-7.826l-.173-.681L25,65.215V56.784l7.163-2.389.173-.682a29.389,29.389,0,0,1,3.246-7.826l.362-.6-3.381-6.758,5.963-5.963,6.758,3.379.6-.36a29.383,29.383,0,0,1,7.827-3.246l.681-.174L56.784,25h8.431L67.6,32.161l.681.174a29.383,29.383,0,0,1,7.827,3.246l.6.36,6.758-3.379,5.963,5.963-3.381,6.758.362.6a29.4,29.4,0,0,1,3.253,7.826l.172.682L97,56.784v8.431L89.837,67.6l-.166.681a29.413,29.413,0,0,1-3.246,7.826l-.361.6,3.38,6.758-5.969,5.963-6.758-3.379-.6.36a29.419,29.419,0,0,1-7.827,3.253l-.681.174L65.215,97ZM41.876,61.637l5.476,6.15a3.823,3.823,0,0,0-.495,1.853,3.857,3.857,0,1,0,6.85-2.4l6.48-10.542a3.758,3.758,0,0,0,2.26-.2l5.476,6.15a3.819,3.819,0,0,0-.495,1.851,3.857,3.857,0,0,0,7.714,0,3.967,3.967,0,0,0-.046-.462l3.8-1.911A3.857,3.857,0,1,0,81.581,55.5h-.01a3.862,3.862,0,0,0-3.857,3.857,3.951,3.951,0,0,0,.046.463l-3.8,1.911a3.814,3.814,0,0,0-4.122-.8l-5.476-6.15a3.855,3.855,0,1,0-6.356.55L51.526,65.87a3.762,3.762,0,0,0-2.26.2l-5.476-6.15a3.819,3.819,0,0,0,.495-1.851,3.857,3.857,0,1,0-3.857,3.857,3.792,3.792,0,0,0,1.448-.288Zm8.838,9.288a1.285,1.285,0,1,1,.909-.376A1.277,1.277,0,0,1,50.714,70.925Zm20.571-5.143a1.285,1.285,0,1,1,.909-.376A1.277,1.277,0,0,1,71.285,65.782Zm10.286-5.143a1.285,1.285,0,1,1,.909-.376A1.277,1.277,0,0,1,81.571,60.639ZM40.428,59.354a1.285,1.285,0,1,1,.909-.376A1.277,1.277,0,0,1,40.428,59.354ZM61,54.211a1.285,1.285,0,1,1,.909-.376A1.277,1.277,0,0,1,61,54.211Z" transform="translate(-24.999 -24.999)" fill="url(#a)"/></svg>