<svg xmlns="http://www.w3.org/2000/svg" xmlns:xlink="http://www.w3.org/1999/xlink" width="38.83" height="72" viewBox="0 0 38.83 72"><defs><linearGradient id="a" x1="0.5" x2="0.5" y2="1" gradientUnits="objectBoundingBox"><stop offset="0" stop-color="#ff2a6b"/><stop offset="1" stop-color="#ff5e3a"/></linearGradient></defs><g transform="translate(-76)"><g transform="translate(76)"><path d="M108.358,0H82.472C78.9,0,76,3.785,76,8.438V63.563C76,68.215,78.9,72,82.472,72h25.886c3.568,0,6.472-3.785,6.472-8.437V8.438C114.83,3.785,111.926,0,108.358,0Zm2.157,63.563c0,1.551-.968,2.813-2.157,2.813H82.472c-1.189,0-2.157-1.262-2.157-2.812V8.438c0-1.551.968-2.813,2.157-2.813h3.843l.449,1.741a2.291,2.291,0,0,0,2.044,1.915h13.213a2.291,2.291,0,0,0,2.044-1.915l.449-1.741h3.843c1.189,0,2.157,1.262,2.157,2.813Z" transform="translate(-76)" fill="url(#a)"/></g></g></svg>