<svg xmlns="http://www.w3.org/2000/svg" xmlns:xlink="http://www.w3.org/1999/xlink" width="216" height="216" viewBox="0 0 216 216"><defs><linearGradient id="a" x1="0.5" x2="0.5" y2="1" gradientUnits="objectBoundingBox"><stop offset="0" stop-color="#ff2a6b"/><stop offset="1" stop-color="#ff5e3a"/></linearGradient></defs><path d="M474,140H420V275a27,27,0,1,0,54,0Zm0,0" transform="translate(-258 -86)" fill="url(#a)"/><path d="M0,0V189a27.031,27.031,0,0,0,27,27H167.2c-.048-.033-.084-.081-.133-.115q-1.381-1.128-2.643-2.388c-.151-.151-.28-.321-.431-.475-.68-.707-1.338-1.436-1.954-2.194-.268-.328-.508-.681-.773-1.016-.467-.622-.927-1.245-1.35-1.9-.258-.384-.5-.809-.74-1.217-.387-.63-.737-1.261-1.071-1.929-.224-.435-.437-.88-.642-1.33q-.457-.992-.848-2.01c-.178-.463-.354-.927-.512-1.4-.24-.711-.445-1.436-.637-2.168-.124-.461-.253-.918-.359-1.388-.181-.811-.31-1.635-.432-2.469-.059-.408-.143-.806-.184-1.219a34.244,34.244,0,0,1-.209-3.791V0ZM135,146.571H19.286a3.857,3.857,0,1,1,0-7.714H135a3.857,3.857,0,0,1,0,7.714Zm0-23.143H19.286a3.857,3.857,0,1,1,0-7.714H135a3.857,3.857,0,0,1,0,7.714Zm0-23.143H19.286a3.857,3.857,0,1,1,0-7.714H135a3.857,3.857,0,0,1,0,7.714Zm3.857-34.714A3.857,3.857,0,0,1,135,69.429H19.286a3.857,3.857,0,0,1-3.857-3.857V27a3.857,3.857,0,0,1,3.857-3.857H135A3.857,3.857,0,0,1,138.857,27Zm0,0" fill="url(#a)"/></svg>