<svg xmlns="http://www.w3.org/2000/svg" xmlns:xlink="http://www.w3.org/1999/xlink" width="72" height="72" viewBox="0 0 72 72"><defs><linearGradient id="a" x1="0.5" x2="0.5" y2="1" gradientUnits="objectBoundingBox"><stop offset="0" stop-color="#ff2a6b"/><stop offset="1" stop-color="#ff5e3a"/></linearGradient></defs><path d="M69.75,67.5H4.5V2.25a2.25,2.25,0,0,0-4.5,0V67.5A4.5,4.5,0,0,0,4.5,72H69.75a2.25,2.25,0,0,0,0-4.5Z" fill="url(#a)"/><g transform="translate(9)"><circle cx="6.75" cy="6.75" r="6.75" fill="url(#a)"/></g><g transform="translate(13.5 31.5)"><circle cx="13.5" cy="13.5" r="13.5" fill="url(#a)"/></g><g transform="translate(22.5)"><path d="M184.75,0A24.748,24.748,0,0,0,160,24.75a24.451,24.451,0,0,0,.175,2.83A17.811,17.811,0,0,1,181.92,49.325a24.449,24.449,0,0,0,2.83.175,24.75,24.75,0,0,0,0-49.5Z" transform="translate(-160)" fill="url(#a)"/></g></svg>