<svg xmlns="http://www.w3.org/2000/svg" xmlns:xlink="http://www.w3.org/1999/xlink" width="72" height="72" viewBox="0 0 72 72"><defs><linearGradient id="a" x1="0.5" x2="0.5" y2="1" gradientUnits="objectBoundingBox"><stop offset="0" stop-color="#ff2a6b"/><stop offset="1" stop-color="#ff5e3a"/></linearGradient></defs><path d="M0,232.918H6.207v7.359H0Zm0,0" transform="translate(0 -200.164)" fill="url(#a)"/><path d="M104.656,311.41h6.207v4.916a2.458,2.458,0,0,1-2.473,2.443h-3.734Zm0,0" transform="translate(-89.759 -267.618)" fill="url(#a)"/><path d="M169.156,164.567l23.095-10.141V183.86l-23.095-10.141Zm0,0" transform="translate(-145.078 -132.71)" fill="url(#a)"/><path d="M61.047,311.41H68.5V324.9H61.047Zm0,0" transform="translate(-52.358 -267.618)" fill="url(#a)"/><path d="M384.947,6.164l-9.931,9.812v8.585H383.7l9.931-9.811ZM380.6,20.881a1.84,1.84,0,1,1,1.862-1.84A1.851,1.851,0,0,1,380.6,20.881Zm0,0" transform="translate(-321.636 -5.297)" fill="url(#a)"/><path d="M38.449,198.035H51.18a3.544,3.544,0,0,1,3.565,3.522v10.126a3.544,3.544,0,0,1-3.565,3.522H38.449a3.544,3.544,0,0,1-3.566-3.522V201.557A3.544,3.544,0,0,1,38.449,198.035Zm0,0" transform="translate(-29.918 -170.186)" fill="url(#a)"/><path d="M366.6,346.547l-8.778,8.673,12.29,12.142,8.778-8.672Zm.782,12.5a1.234,1.234,0,0,1-1.142-1.129l-.6-7.648,2.475-.188.514,6.6,6.819.517-.19,2.446Zm0,0" transform="translate(-306.891 -297.814)" fill="url(#a)"/><path d="M434.792,184.269a3.724,3.724,0,1,1-3.724-3.679A3.7,3.7,0,0,1,434.792,184.269Zm0,0" transform="translate(-366.516 -155.194)" fill="url(#a)"/><path d="M422.368,241.641h2.437a3.725,3.725,0,0,1,3.746,3.7v6.109h-9.931v-6.109a3.725,3.725,0,0,1,3.748-3.7Zm0,0" transform="translate(-359.034 -207.66)" fill="url(#a)"/><path d="M379.98,200.488a2.483,2.483,0,1,1-2.483-2.453A2.468,2.468,0,0,1,379.98,200.488Zm0,0" transform="translate(-321.636 -170.187)" fill="url(#a)"/><path d="M370.017,241.641a3.7,3.7,0,0,1,3.724,3.679V249h-7.448V245.32a3.7,3.7,0,0,1,3.724-3.679Zm0,0" transform="translate(-314.155 -207.66)" fill="url(#a)"/><path d="M188.513,1.734,186.758,0l-7.583,7.49a8.8,8.8,0,0,0-12.212,1.736,8.551,8.551,0,0,0,1.758,12.065,8.8,8.8,0,0,0,12.213-1.736,8.537,8.537,0,0,0,0-10.329ZM173.981,20.49a6.133,6.133,0,1,1,6.207-6.132A6.17,6.17,0,0,1,173.981,20.49Zm0,0" transform="translate(-141.705)" fill="url(#a)"/><path d="M160.676,363.738H155.71l-7.448,7.359,13.655,13.491,9.931-9.811Zm-5.843,8.945,4.966-4.906,1.755,1.734-4.966,4.906Zm5.48,5.414-1.755-1.734,4.966-4.906,1.755,1.734Zm0,0" transform="translate(-127.159 -312.587)" fill="url(#a)"/></svg>