<svg xmlns="http://www.w3.org/2000/svg" xmlns:xlink="http://www.w3.org/1999/xlink" width="100" height="88" viewBox="0 0 100 88"><defs><linearGradient id="a" x1="0.5" x2="0.5" y2="1" gradientUnits="objectBoundingBox"><stop offset="0" stop-color="#ff2a6b"/><stop offset="1" stop-color="#ff5e3a"/></linearGradient></defs><path d="M127,20.953A20.834,20.834,0,1,1,106.166,0,20.893,20.893,0,0,1,127,20.953Zm0,0" transform="translate(-68.666)" fill="url(#a)"/><path d="M55.209,256H19.791A19.872,19.872,0,0,0,0,275.9v14.667a3.135,3.135,0,0,0,3.125,3.143h68.75A3.135,3.135,0,0,0,75,290.571V275.9A19.872,19.872,0,0,0,55.209,256Zm0,0" transform="translate(0 -205.714)" fill="url(#a)"/><path d="M339.339,121.141l-14.584-13.619a3.128,3.128,0,0,0-5.254,2.3v9.429H302.834a4.19,4.19,0,0,0,0,8.38H319.5v9.429a3.125,3.125,0,0,0,5.254,2.3l14.584-13.619a3.166,3.166,0,0,0,0-4.61Zm0,0" transform="translate(-240.334 -85.731)" fill="url(#a)"/></svg>