<svg xmlns="http://www.w3.org/2000/svg" xmlns:xlink="http://www.w3.org/1999/xlink" width="72" height="72" viewBox="0 0 72 72"><defs><linearGradient id="a" x1="0.5" x2="0.5" y2="1" gradientUnits="objectBoundingBox"><stop offset="0" stop-color="#ff2a6b"/><stop offset="1" stop-color="#ff5e3a"/></linearGradient></defs><g transform="translate(-1511 -1341)"><g transform="translate(1511 1341)"><path d="M245.908,179.6c-.849,0-1.717.234-1.717,1.966v6.3c0,1.732.868,1.965,1.717,1.965,1.2,0,1.739-.606,1.739-1.965v-6.3C247.648,180.208,247.111,179.6,245.908,179.6Zm0,0" transform="translate(-209.852 -154.345)" fill="url(#a)"/><path d="M61.314,8.761A39.465,39.465,0,0,0,36,0,39.466,39.466,0,0,0,10.685,8.761C3.794,14.5,0,22.171,0,30.352c0,8.37,4.1,16.364,11.3,22.086V66.974C11.3,70.684,13.347,72,15.1,72a5.462,5.462,0,0,0,3.788-1.88L28.9,60.112A42.839,42.839,0,0,0,36,60.7a39.468,39.468,0,0,0,25.315-8.76C68.2,46.2,72,38.533,72,30.352S68.2,14.5,61.314,8.761ZM22.156,39.4c-3.117,0-5.852-1.6-5.852-3.434,0-.882.766-2.214,1.92-2.214a2.33,2.33,0,0,1,1.46.731,3.385,3.385,0,0,0,2.381,1.009c.571,0,1.9-.13,1.9-1.333,0-1.038-1-1.535-2.634-2.26-2.058-.914-4.619-2.051-4.619-5.445,0-3.8,3.3-5.152,6.123-5.152.823,0,4.926.118,4.926,2.441,0,.919-.628,2.192-1.808,2.192a2.347,2.347,0,0,1-1.089-.345,3.9,3.9,0,0,0-2.029-.514c-.717,0-1.92.144-1.92,1.107,0,.692.859,1.091,2.261,1.686,2.107.894,4.992,2.118,4.992,6,0,3.415-2.3,5.536-6.01,5.536ZM42,33.526c0,3.691-2.166,5.807-5.943,5.807s-5.921-2.117-5.921-5.807v-6.3c0-3.69,2.158-5.807,5.921-5.807S42,23.532,42,27.222ZM49.685,39.4c-3.118,0-5.852-1.6-5.852-3.434,0-.882.766-2.214,1.92-2.214a2.33,2.33,0,0,1,1.461.731A3.385,3.385,0,0,0,49.6,35.492c.571,0,1.9-.13,1.9-1.333,0-1.038-1-1.535-2.634-2.26-2.058-.914-4.619-2.051-4.619-5.445,0-3.8,3.3-5.152,6.124-5.152.822,0,4.925.118,4.925,2.441,0,.919-.628,2.192-1.807,2.192a2.351,2.351,0,0,1-1.09-.345,3.893,3.893,0,0,0-2.028-.514c-.718,0-1.921.144-1.921,1.107,0,.692.86,1.091,2.262,1.686,2.107.894,4.992,2.118,4.992,6,0,3.415-2.3,5.536-6.011,5.536Zm0,0" transform="translate(0 0)" fill="url(#a)"/></g></g></svg>