<svg xmlns="http://www.w3.org/2000/svg" xmlns:xlink="http://www.w3.org/1999/xlink" width="72" height="72" viewBox="0 0 72 72"><defs><linearGradient id="a" x1="0.5" x2="0.5" y2="1" gradientUnits="objectBoundingBox"><stop offset="0" stop-color="#ff2a6b"/><stop offset="1" stop-color="#ff5e3a"/></linearGradient></defs><path d="M87.764,0a27.562,27.562,0,0,0-27.53,27.53V52.941a6.353,6.353,0,1,0,12.706,0V31.765a6.36,6.36,0,0,0-6.353-6.353,6.283,6.283,0,0,0-2.029.362,23.27,23.27,0,0,1,46.41-.017,6.239,6.239,0,0,0-2.028-.345,6.36,6.36,0,0,0-6.353,6.353V52.941a6.36,6.36,0,0,0,6.353,6.353,6.28,6.28,0,0,0,2.118-.39v2.508a2.12,2.12,0,0,1-2.118,2.118H93.726a6.353,6.353,0,1,0,0,4.235H108.94a6.36,6.36,0,0,0,6.353-6.353V27.53A27.562,27.562,0,0,0,87.764,0Zm0,0" transform="translate(-51.764)" fill="url(#a)"/><path d="M481.883,213.6v24.631a6.342,6.342,0,0,0,4.235-5.963V219.561a6.343,6.343,0,0,0-4.235-5.963Zm0,0" transform="translate(-414.118 -183.561)" fill="url(#a)"/><path d="M0,219.561v12.706a6.342,6.342,0,0,0,4.235,5.963V213.6A6.343,6.343,0,0,0,0,219.561Zm0,0" transform="translate(0 -183.561)" fill="url(#a)"/></svg>